<?xml version="1.0" encoding="utf-8"?>
<!-- Generator: Adobe Illustrator 27.1.0, SVG Export Plug-In . SVG Version: 6.00 Build 0)  -->
<svg version="1.1" xmlns="http://www.w3.org/2000/svg" xmlns:xlink="http://www.w3.org/1999/xlink" x="0px" y="0px"
	 viewBox="0 0 1000 1000" style="enable-background:new 0 0 1000 1000;" xml:space="preserve">
<style type="text/css">
	.st0{fill:#F79A6B;}
	.st1{fill:#754C29;}
	.st2{fill:#009444;}
	.st3{fill:#F15A29;}
	.st4{fill:#B84828;}
	.st5{fill:#E6E7E8;}
	.st6{fill:#414042;}
	.st7{fill:#F0586C;}
	.st8{fill:#FFFFFF;}
	.st9{font-family:'Molot';}
	.st10{font-size:501.9496px;}
	.st11{letter-spacing:50;}
</style>
<g id="Layer_1">
	<g>
		<path class="st0" d="M2091.49-2938.16c17.28,115.63-22.66,258.2-135.44,348.1c-12.98,10.35-131.72,101.9-289.87,75.95
			c-185.34-30.41-326.94-206.12-328.62-383.19c-0.98-102.93,45.13-226.31,142.54-287.7c19.82-12.49,86.03-54.21,151.9-34.18
			c63.19,19.22,56.77,74.22,118.99,106.33c92.99,47.99,172.39-41.29,254.43,2.53C2070.99-3075.28,2084.66-2983.84,2091.49-2938.16z"
			/>
		<path class="st1" d="M1784.81-3112.2l-18.63-5.36c-3.96-1.14-6.06-5.33-4.79-9.25c58.47-181.79,150.56-256.8,146.66-251.06
			c-24.96,36.71-69.19,77.13-114.34,260.72C1792.75-3113.29,1788.64-3111.1,1784.81-3112.2z"/>
		<path class="st2" d="M1798.07-3263.7c-16.86-4.23-39.91-12.1-64.17-27.49c-37.97-24.1-59.72-54.45-70.57-72.38
			c26.39-1.1,59.5-0.19,96.97,6.29c33.82,5.85,62.63,14.76,85.61,23.57c-9.92,9.6-21.49,22.67-32.15,39.7
			C1807-3283.19,1801.91-3272.88,1798.07-3263.7z"/>
		<path class="st2" d="M1853.81-3247.2c21.26,5.89,42.9,12.17,64.88,18.89c32.9,10.06,64.63,20.49,95.18,31.16
			c-24.56,9.71-56.13,19.73-93.66,25.92c-33.87,5.59-64,6.63-88.61,5.86c1.21-12.05,3.5-26.23,7.72-41.81
			C1843.56-3222.77,1848.76-3236.18,1853.81-3247.2z"/>
	</g>
	<path class="st0" d="M906.47-2938.16c17.28,115.63-22.66,258.2-135.44,348.1c-12.98,10.35-131.72,101.9-289.87,75.95
		c-185.34-30.41-326.94-206.12-328.62-383.19c-0.98-102.93,45.13-226.31,142.54-287.7c19.82-12.49,86.03-54.21,151.9-34.18
		c63.19,19.22,56.77,74.22,118.99,106.33c92.99,47.99,172.39-41.29,254.43,2.53C885.97-3075.28,899.64-2983.84,906.47-2938.16z"/>
	<path class="st1" d="M599.79-3112.2l-18.63-5.36c-3.96-1.14-6.06-5.33-4.79-9.25c58.47-181.79,150.56-256.8,146.66-251.06
		c-24.96,36.71-69.19,77.13-114.34,260.72C607.73-3113.29,603.62-3111.1,599.79-3112.2z"/>
	<path class="st2" d="M613.05-3263.7c-16.86-4.23-39.91-12.1-64.17-27.49c-37.97-24.1-59.72-54.45-70.57-72.38
		c26.39-1.1,59.5-0.19,96.97,6.29c33.82,5.85,62.63,14.76,85.61,23.57c-9.92,9.6-21.5,22.67-32.15,39.7
		C621.98-3283.19,616.89-3272.88,613.05-3263.7z"/>
	<path class="st2" d="M668.79-3247.2c21.26,5.89,42.9,12.17,64.88,18.89c32.9,10.06,64.63,20.49,95.18,31.16
		c-24.56,9.71-56.13,19.73-93.66,25.92c-33.87,5.59-64,6.63-88.61,5.86c1.21-12.05,3.5-26.23,7.72-41.81
		C658.54-3222.77,663.74-3236.18,668.79-3247.2z"/>
</g>
<g id="Layer_2">
	<rect x="137.74" y="83.1" class="st3" width="710.83" height="832.42"/>
	<path id="SVGID_x5F_1_x5F_" style="fill:none;" d="M196.44-2876.07c114.85,14.4,153.78,1.39,222.4-5.62
		c16.11-1.64,44.89-5.27,101.44-11.31c64.51-6.89,246.53,18.08,321.36,53.11"/>
	<text>	<textPath  xlink:href="#SVGID_x5F_1_x5F_" startOffset="4.3163%">
<tspan  class="st8 st9" style="font-size:150px; letter-spacing:100;">PEACHY</tspan>	</textPath>
</text>
	<path id="SVGID_x5F_00000160885296745157713220000010704083503058097836_x5F_" style="fill:none;" d="M254.79-2735.94
		c0,0,138.88,51.89,318.27,25.92c113.85-16.48,210.24,6.8,210.24,6.8"/>
	<text>	<textPath  xlink:href="#SVGID_x5F_00000160885296745157713220000010704083503058097836_x5F_" startOffset="17.2485%">
<tspan  class="st8 st9" style="font-size:150px; letter-spacing:100;">FILMS</tspan>	</textPath>
</text>
	<text transform="matrix(1 0 0 1 2323.6418 -2742.634)"><tspan x="0" y="0" class="st8 st9" style="font-size:469.0766px; letter-spacing:46;">PEACHY</tspan><tspan x="1892.7" y="0" class="st8 st9" style="font-size:469.0766px; letter-spacing:23;"> </tspan><tspan x="2146" y="0" class="st8 st9" style="font-size:469.0766px; letter-spacing:46;">FILMS</tspan></text>
	<text transform="matrix(1 0 0 1 2738.8369 -1480.3424)" class="st3 st9" style="font-size:469.0766px; letter-spacing:46;">SUNSET MOVIES</text>
	<path class="st3" d="M2166.68-1516.68v28.59c0,10.53,8.2,19.27,18.8,20.05l205.55,15.15c11.78,0.87,21.81-8.36,21.81-20.05v-58.89
		c0-11.69-10.04-20.92-21.81-20.05l-205.55,15.15C2174.88-1535.95,2166.68-1527.21,2166.68-1516.68z"/>
	<path class="st3" d="M2166.35-1691.47l5.83,27.99c2.15,10.31,11.96,17.2,22.5,15.8l204.32-27.1c11.71-1.55,19.65-12.63,17.26-24.08
		l-12.01-57.65c-2.39-11.45-14.09-18.43-25.45-15.18l-198.14,56.76C2170.45-1712.01,2164.21-1701.77,2166.35-1691.47z"/>
	<path class="st3" d="M1918.69-1838.82h28.59c10.53,0,19.27-8.2,20.05-18.8l15.15-205.55c0.87-11.78-8.36-21.81-20.05-21.81h-58.89
		c-11.69,0-20.92,10.04-20.05,21.81l15.15,205.55C1899.41-1847.01,1908.16-1838.82,1918.69-1838.82z"/>
	<path class="st3" d="M2090.89-1803.88l21.9,18.38c8.06,6.77,20.03,6.11,27.45-1.51l143.73-147.72c8.23-8.46,7.62-22.08-1.34-29.6
		l-45.11-37.85c-8.96-7.52-22.48-5.76-29.38,3.82l-120.52,167.2C2081.39-1822.55,2082.82-1810.65,2090.89-1803.88z"/>
	<path class="st3" d="M1699.28-1516.68v28.59c0,10.53-8.2,19.27-18.8,20.05l-205.55,15.15c-11.78,0.87-21.81-8.36-21.81-20.05
		v-58.89c0-11.69,10.04-20.92,21.81-20.05l205.55,15.15C1691.08-1535.95,1699.28-1527.21,1699.28-1516.68z"/>
	<path class="st3" d="M1699.61-1691.47l-5.83,27.99c-2.15,10.31-11.96,17.2-22.5,15.8l-204.32-27.1
		c-11.71-1.55-19.65-12.63-17.26-24.08l12.01-57.65c2.39-11.45,14.09-18.43,25.45-15.18l198.14,56.76
		C1695.52-1712.01,1701.76-1701.77,1699.61-1691.47z"/>
	<path class="st3" d="M1775.08-1803.88l-21.9,18.38c-8.06,6.77-20.03,6.11-27.45-1.51L1582-1934.74c-8.23-8.46-7.62-22.08,1.34-29.6
		l45.11-37.85c8.96-7.52,22.48-5.76,29.38,3.82l120.52,167.2C1784.57-1822.55,1783.14-1810.65,1775.08-1803.88z"/>
	<path class="st3" d="M1887.36-1714.21l188.13,98.81c11.01,5.79,11.01,21.55,0,27.34l-188.13,98.81
		c-10.28,5.4-22.62-2.06-22.62-13.67v-197.62C1864.74-1712.15,1877.08-1719.61,1887.36-1714.21z"/>
	<path d="M648.23-2235.82c-149.31,0-270.34,121.04-270.34,270.34c0,56.06,17.07,108.14,46.29,151.32l-359.9,359.9l86.26,86.26
		l363.02-363.02c39.65,22.82,85.64,35.88,134.67,35.88c149.31,0,270.34-121.04,270.34-270.34S797.53-2235.82,648.23-2235.82z
		 M648.23-1767.79c-109.18,0-197.69-88.51-197.69-197.69c0-109.18,88.51-197.69,197.69-197.69s197.69,88.51,197.69,197.69
		C845.91-1856.3,757.41-1767.79,648.23-1767.79z"/>
	<g>
		<path class="st4" d="M182.78-676.27c0-91.22,29.9-175.45,80.42-243.45c-94.84,71.73-156.13,185.5-156.13,313.58
			c0,217.01,175.92,392.94,392.94,392.94c91,0,174.78-30.94,241.39-82.87c-46.44,18.34-97.04,28.41-150,28.41
			C365.72-267.66,182.78-450.6,182.78-676.27z"/>
		<path class="st3" d="M892.94-606.14c0-217.01-175.92-392.94-392.94-392.94c-88.93,0-170.95,29.55-236.81,79.35
			c-50.52,68-80.42,152.23-80.42,243.45c0,225.67,182.94,408.61,408.61,408.61c52.96,0,103.56-10.08,150-28.41
			C833.62-367.98,892.94-480.13,892.94-606.14z"/>
	</g>
	<circle class="st3" cx="2950.44" cy="-606.83" r="392.94"/>
	<circle class="st5" cx="1685.02" cy="499.31" r="392.94"/>
	<path class="st6" d="M1807.26,273.17c-49.5,0-93.51,46.82-121.48,78.14c-27.97-31.33-71.98-78.14-121.48-78.14
		c-5.29,0-10.51,0.23-15.66,0.68c-102.32,8.94-154.6,110.22-94.56,181.97l61.54,73.54l165.25,197.46l170.1-196.11l63.61-73.34
		c64.81-74.72,5.06-181.8-103.36-184.16C1809.9,273.19,1808.58,273.17,1807.26,273.17z"/>
	<circle class="st6" cx="1679.21" cy="-606.83" r="392.94"/>
	<path class="st7" d="M1801.45-832.97c-49.5,0-93.51,46.82-121.48,78.14c-27.97-31.33-71.98-78.14-121.48-78.14
		c-5.29,0-10.51,0.23-15.66,0.68c-102.32,8.94-154.6,110.22-94.56,181.97l61.54,73.54l165.25,197.46l170.1-196.11l63.61-73.34
		c64.81-74.72,5.06-181.8-103.36-184.16C1804.09-832.95,1802.77-832.97,1801.45-832.97z"/>
	<rect x="223.1" y="143.7" class="st8" width="72.01" height="291.67"/>
	<g>
		<rect x="379.13" y="143.7" class="st8" width="72.01" height="291.67"/>
	</g>
	<rect x="535.16" y="143.7" class="st8" width="72.01" height="291.67"/>
	<rect x="691.19" y="143.7" class="st8" width="72.01" height="291.67"/>
	
		<rect x="1297.76" y="395.44" transform="matrix(-1.836970e-16 1 -1 -1.836970e-16 1874.121 -798.4522)" class="st8" width="77.04" height="284.79"/>
	<text transform="matrix(1 0 0 1 213.0709 856.8798)" class="st8 st9 st10 st11">ss</text>
</g>
</svg>
