<?xml version="1.0" encoding="utf-8"?>
<!-- Generator: Adobe Illustrator 26.1.0, SVG Export Plug-In . SVG Version: 6.00 Build 0)  -->
<svg version="1.1" id="Layer_1" xmlns="http://www.w3.org/2000/svg" xmlns:xlink="http://www.w3.org/1999/xlink" x="0px" y="0px"
	 viewBox="0 0 1000 1000" style="enable-background:new 0 0 1000 1000;" xml:space="preserve">
<style type="text/css">
	.st0{fill:#F79A6B;}
	.st1{fill:#754C29;}
	.st2{fill:#009444;}
	.st3{fill:#F15A29;}
	.st4{fill:none;}
	.st5{font-family:'ArialMT';}
	.st6{font-size:12px;}
	.st7{fill:#B84828;}
	.st8{fill:#E6E7E8;}
	.st9{fill:#414042;}
	.st10{fill:#F0586C;}
	.st11{fill:#FFFFFF;}
	.st12{enable-background:new    ;}
</style>
<g id="Layer_1_00000118370745886591125930000001700240167817084830_">
	<g>
		<path class="st0" d="M2091.5-2938.2c17.3,115.6-22.7,258.2-135.4,348.1c-13,10.4-131.7,101.9-289.9,75.9
			c-185.3-30.4-326.9-206.1-328.6-383.2c-1-102.9,45.1-226.3,142.5-287.7c19.8-12.5,86-54.2,151.9-34.2
			c63.2,19.2,56.8,74.2,119,106.3c93,48,172.4-41.3,254.4,2.5C2071-3075.3,2084.7-2983.8,2091.5-2938.2z"/>
		<path class="st1" d="M1784.8-3112.2l-18.6-5.4c-4-1.1-6.1-5.3-4.8-9.2c58.5-181.8,150.6-256.8,146.7-251.1
			c-25,36.7-69.2,77.1-114.3,260.7C1792.8-3113.3,1788.6-3111.1,1784.8-3112.2z"/>
		<path class="st2" d="M1798.1-3263.7c-16.9-4.2-39.9-12.1-64.2-27.5c-38-24.1-59.7-54.4-70.6-72.4c26.4-1.1,59.5-0.2,97,6.3
			c33.8,5.9,62.6,14.8,85.6,23.6c-9.9,9.6-21.5,22.7-32.2,39.7C1807-3283.2,1801.9-3272.9,1798.1-3263.7z"/>
		<path class="st2" d="M1853.8-3247.2c21.3,5.9,42.9,12.2,64.9,18.9c32.9,10.1,64.6,20.5,95.2,31.2c-24.6,9.7-56.1,19.7-93.7,25.9
			c-33.9,5.6-64,6.6-88.6,5.9c1.2-12.1,3.5-26.2,7.7-41.8C1843.6-3222.8,1848.8-3236.2,1853.8-3247.2z"/>
	</g>
	<path class="st0" d="M906.5-2938.2c17.3,115.6-22.7,258.2-135.4,348.1c-13,10.4-131.7,101.9-289.9,75.9
		c-185.3-30.4-326.9-206.1-328.6-383.2c-1-102.9,45.1-226.3,142.5-287.7c19.8-12.5,86-54.2,151.9-34.2
		c63.2,19.2,56.8,74.2,119,106.3c93,48,172.4-41.3,254.4,2.5C886-3075.3,899.6-2983.8,906.5-2938.2z"/>
	<path class="st1" d="M599.8-3112.2l-18.6-5.4c-4-1.1-6.1-5.3-4.8-9.2c58.5-181.8,150.6-256.8,146.7-251.1
		c-25,36.7-69.2,77.1-114.3,260.7C607.7-3113.3,603.6-3111.1,599.8-3112.2z"/>
	<path class="st2" d="M613-3263.7c-16.9-4.2-39.9-12.1-64.2-27.5c-38-24.1-59.7-54.4-70.6-72.4c26.4-1.1,59.5-0.2,97,6.3
		c33.8,5.9,62.6,14.8,85.6,23.6c-9.9,9.6-21.5,22.7-32.2,39.7C622-3283.2,616.9-3272.9,613-3263.7z"/>
	<path class="st2" d="M668.8-3247.2c21.3,5.9,42.9,12.2,64.9,18.9c32.9,10.1,64.6,20.5,95.2,31.2c-24.6,9.7-56.1,19.7-93.7,25.9
		c-33.9,5.6-64,6.6-88.6,5.9c1.2-12.1,3.5-26.2,7.7-41.8C658.5-3222.8,663.7-3236.2,668.8-3247.2z"/>
</g>
<rect x="137.7" y="83.1" class="st3" width="710.8" height="832.4"/>
<path id="SVGID_x5F_1_x5F_" class="st4" d="M196.4-2876.1c114.9,14.4,153.8,1.4,222.4-5.6c16.1-1.6,44.9-5.3,101.4-11.3
	c64.5-6.9,246.5,18.1,321.4,53.1"/>
<text transform="matrix(0.9955 9.448586e-02 -9.448586e-02 0.9955 224.4626 -2872.9392)" class="st5 st6"> </text>
<text transform="matrix(0.9996 2.943115e-02 -2.943115e-02 0.9996 227.7049 -2871.1282)" class="st11" style="font-family:'Molot'; font-size:150px; letter-spacing:99;">P</text>
<text transform="matrix(0.9935 -0.1139 0.1139 0.9935 416.288 -2881.3269)" class="st11" style="font-family:'Molot'; font-size:150px; letter-spacing:99;">E</text>
<text transform="matrix(0.9925 0.1222 -0.1222 0.9925 594.8376 -2892.8948)" class="st11" style="font-family:'Molot'; font-size:150px; letter-spacing:99;">A</text>
<text transform="matrix(0.9408 0.339 -0.339 0.9408 782.4385 -2862.262)" class="st11" style="font-family:'Molot'; font-size:150px; letter-spacing:99;">C</text>
<text class="st5 st6"> </text>
<path id="SVGID_x5F_00000160885296745157713220000010704083503058097836_x5F_" class="st4" d="M254.8-2735.9
	c0,0,138.9,51.9,318.3,25.9c113.8-16.5,210.2,6.8,210.2,6.8"/>
<text transform="matrix(0.9856 0.1692 -0.1692 0.9856 343.9753 -2713.7004)" class="st5 st6"> </text>
<text transform="matrix(0.9934 0.1148 -0.1148 0.9934 347.1272 -2712.1277)" class="st11" style="font-family:'Molot'; font-size:150px; letter-spacing:99;">F</text>
<text transform="matrix(0.9944 -0.1053 0.1053 0.9944 524.3652 -2704.3521)" class="st11" style="font-family:'Molot'; font-size:150px; letter-spacing:99;">I</text>
<text transform="matrix(0.9973 7.331116e-02 -7.331116e-02 0.9973 668.5072 -2716.844)" class="st11" style="font-family:'Molot'; font-size:150px; letter-spacing:99;">L</text>
<text class="st5 st6"> </text>
<text transform="matrix(1 0 0 1 2323.6418 -2742.634)" class="st11" style="font-family:'Molot'; font-size:469.0766px; letter-spacing:45;">PEACHY</text>
<text transform="matrix(1 0 0 1 4216.3418 -2742.634)" class="st11" style="font-family:'Molot'; font-size:469.0766px; letter-spacing:22;"> </text>
<text transform="matrix(1 0 0 1 4469.6416 -2742.634)" class="st11" style="font-family:'Molot'; font-size:469.0766px; letter-spacing:45;">FILMS</text>
<text transform="matrix(1 0 0 1 2738.8369 -1480.3423)" class="st3" style="font-family:'Molot'; font-size:469.0766px; letter-spacing:45;">SUNSET MOVIES</text>
<path class="st3" d="M2166.7-1516.7v28.6c0,10.5,8.2,19.3,18.8,20.1l205.6,15.2c11.8,0.9,21.8-8.4,21.8-20.1v-58.9
	c0-11.7-10-20.9-21.8-20.1l-205.6,15.2C2174.9-1535.9,2166.7-1527.2,2166.7-1516.7z"/>
<path class="st3" d="M2166.4-1691.5l5.8,28c2.1,10.3,12,17.2,22.5,15.8l204.3-27.1c11.7-1.6,19.6-12.6,17.3-24.1l-12-57.7
	c-2.4-11.4-14.1-18.4-25.4-15.2l-198.1,56.8C2170.4-1712,2164.2-1701.8,2166.4-1691.5z"/>
<path class="st3" d="M1918.7-1838.8h28.6c10.5,0,19.3-8.2,20.1-18.8l15.2-205.5c0.9-11.8-8.4-21.8-20.1-21.8h-58.9
	c-11.7,0-20.9,10-20.1,21.8l15.2,205.6C1899.4-1847,1908.2-1838.8,1918.7-1838.8z"/>
<path class="st3" d="M2090.9-1803.9l21.9,18.4c8.1,6.8,20,6.1,27.4-1.5l143.7-147.7c8.2-8.5,7.6-22.1-1.3-29.6l-45.1-37.8
	c-9-7.5-22.5-5.8-29.4,3.8l-120.5,167.2C2081.4-1822.6,2082.8-1810.7,2090.9-1803.9z"/>
<path class="st3" d="M1699.3-1516.7v28.6c0,10.5-8.2,19.3-18.8,20.1l-205.6,15.2c-11.8,0.9-21.8-8.4-21.8-20.1v-58.9
	c0-11.7,10-20.9,21.8-20.1l205.6,15.2C1691.1-1535.9,1699.3-1527.2,1699.3-1516.7z"/>
<path class="st3" d="M1699.6-1691.5l-5.8,28c-2.2,10.3-12,17.2-22.5,15.8l-204.3-27.1c-11.7-1.6-19.7-12.6-17.3-24.1l12-57.7
	c2.4-11.4,14.1-18.4,25.4-15.2l198.1,56.8C1695.5-1712,1701.8-1701.8,1699.6-1691.5z"/>
<path class="st3" d="M1775.1-1803.9l-21.9,18.4c-8.1,6.8-20,6.1-27.4-1.5L1582-1934.7c-8.2-8.5-7.6-22.1,1.3-29.6l45.1-37.8
	c9-7.5,22.5-5.8,29.4,3.8l120.5,167.2C1784.6-1822.6,1783.1-1810.7,1775.1-1803.9z"/>
<path class="st3" d="M1887.4-1714.2l188.1,98.8c11,5.8,11,21.6,0,27.3l-188.1,98.8c-10.3,5.4-22.6-2.1-22.6-13.7v-197.6
	C1864.7-1712.2,1877.1-1719.6,1887.4-1714.2z"/>
<path d="M648.2-2235.8c-149.3,0-270.3,121-270.3,270.3c0,56.1,17.1,108.1,46.3,151.3L64.3-1454.3l86.3,86.3l363-363
	c39.7,22.8,85.6,35.9,134.7,35.9c149.3,0,270.3-121,270.3-270.3S797.5-2235.8,648.2-2235.8z M648.2-1767.8
	c-109.2,0-197.7-88.5-197.7-197.7s88.5-197.7,197.7-197.7s197.7,88.5,197.7,197.7C845.9-1856.3,757.4-1767.8,648.2-1767.8z"/>
<g>
	<path class="st7" d="M182.8-676.3c0-91.2,29.9-175.5,80.4-243.5C168.4-848,107.1-734.2,107.1-606.1c0,217,175.9,392.9,392.9,392.9
		c91,0,174.8-30.9,241.4-82.9c-46.4,18.3-97,28.4-150,28.4C365.7-267.7,182.8-450.6,182.8-676.3z"/>
	<path class="st3" d="M892.9-606.1c0-217-175.9-392.9-392.9-392.9c-88.9,0-171,29.5-236.8,79.3c-50.5,68-80.4,152.2-80.4,243.5
		c0,225.7,182.9,408.6,408.6,408.6c53,0,103.6-10.1,150-28.4C833.6-368,892.9-480.1,892.9-606.1z"/>
</g>
<circle class="st3" cx="2950.4" cy="-606.8" r="392.9"/>
<circle class="st8" cx="1685" cy="499.3" r="392.9"/>
<path class="st9" d="M1807.3,273.2c-49.5,0-93.5,46.8-121.5,78.1c-28-31.3-72-78.1-121.5-78.1c-5.3,0-10.5,0.2-15.7,0.7
	c-102.3,8.9-154.6,110.2-94.6,182l61.5,73.5l165.2,197.5L1851,530.7l63.6-73.3c64.8-74.7,5.1-181.8-103.4-184.2
	C1809.9,273.2,1808.6,273.2,1807.3,273.2z"/>
<circle class="st9" cx="1679.2" cy="-606.8" r="392.9"/>
<path class="st10" d="M1801.4-833c-49.5,0-93.5,46.8-121.5,78.1c-28-31.3-72-78.1-121.5-78.1c-5.3,0-10.5,0.2-15.7,0.7
	c-102.3,8.9-154.6,110.2-94.6,182l61.5,73.5l165.2,197.5l170.1-196.1l63.6-73.3c64.8-74.7,5.1-181.8-103.4-184.2
	C1804.1-833,1802.8-833,1801.4-833z"/>
<rect x="223.1" y="143.7" class="st11" width="72" height="291.7"/>
<g>
	<rect x="379.1" y="143.7" class="st11" width="72" height="291.7"/>
</g>
<rect x="535.2" y="143.7" class="st11" width="72" height="291.7"/>
<rect x="691.2" y="143.7" class="st11" width="72" height="291.7"/>
<rect x="1193.9" y="499.3" class="st11" width="284.8" height="77"/>
<g class="st12">
	<path class="st11" d="M223.1,623v-73.8c0-25.6,18.1-43.7,44.2-43.7H458v43.2L441,593.9H333v16.1l95.4,63.7
		c24.1,16.1,29.6,31.6,29.6,59.7v79.8c0,25.6-18.1,43.7-43.7,43.7H223.1V769h125v-23.1l-95.4-63.2
		C228.6,666.1,223.1,651.1,223.1,623z"/>
	<path class="st11" d="M527.8,623v-73.8c0-25.6,18.1-43.7,44.2-43.7h190.7v43.2l-17.1,45.2H637.7v16.1l95.4,63.7
		c24.1,16.1,29.6,31.6,29.6,59.7v79.8c0,25.6-18.1,43.7-43.7,43.7H527.8V769h125v-23.1l-95.4-63.2
		C533.3,666.1,527.8,651.1,527.8,623z"/>
</g>
</svg>
